<?xml version="1.0" encoding="UTF-8"?>
<svg xmlns="http://www.w3.org/2000/svg" viewBox="0 0 566.929 566.929" version="1.1" xmlns:xlink="http://www.w3.org/1999/xlink" width="566.929pt" height="566.929pt" xmlns:inkscape="http://www.inkscape.org/namespaces/inkscape">
 <defs>
  <path id="GlTTRicordiGretoTrial-Medium84" d="M2.26 4.4 C2.85333 4.4 3.37667 4.52 3.83 4.76 C4.28333 5 4.635 5.33333 4.885 5.76 C5.135 6.18667 5.26 6.66667 5.26 7.2 C5.26 7.73333 5.135 8.21333 4.885 8.64 C4.635 9.06667 4.28333 9.4 3.83 9.64 C3.37667 9.88 2.85333 10 2.26 10 L0.79 10 L0.86 8.65 L0.86 5.67 L0.79 4.4 L2.26 4.4 L2.26 4.4 Z M2.26 9.04 C2.8 9.04 3.23 8.87667 3.55 8.55 C3.87 8.22333 4.03 7.77333 4.03 7.2 C4.03 6.62667 3.87 6.17667 3.55 5.85 C3.23 5.52333 2.8 5.36 2.26 5.36 L2.04 5.36 L2.04 9.04 L2.26 9.04 Z"/>
  <path id="GlTTRicordiGretoTrial-Medium105" d="M5.71 4.4 L3.4 7.87 L3.4 8.65 L3.47 10 L2.16 10 L2.23 8.65 L2.23 7.87 L-0.07 4.4 L1.45 4.4 L1.92 5.48 L2.83 7.01 L3.75 5.48 L4.22 4.4 L5.71 4.4 Z"/>
  <path id="GlTTRicordiGretoTrial-Medium81" d="M2.58 4.4 L3.43 4.4 L6.06 10 L4.67 10 L4.31 8.85 L4.14 8.44 L1.84 8.44 L1.66 8.85 L1.3 10 L-0.06 10 L2.58 4.4 L2.58 4.4 Z M3 5.74 L2.24 7.5 L3.74 7.5 L3 5.74 Z"/>
  <clipPath id="Clip0">
   <path d="M0 0 L540.25 0 L540.25 333.9 L0 333.9 L0 0 Z"/>
  </clipPath>
  <clipPath id="Clip1">
   <path d="M0 0 L540.25 0 L540.25 333.9 L0 333.9 L0 0 Z"/>
  </clipPath>
 </defs>
 <g id="Background" inkscape:groupmode="layer" inkscape:label="Background">
  <g transform="translate(0, 390.371)">
   <use xlink:href="#GlTTRicordiGretoTrial-Medium84" style="fill:#171615;stroke:none;" transform="matrix(25 0 0 25 10.725 -101.911)"/>
   <use xlink:href="#GlTTRicordiGretoTrial-Medium105" style="fill:#171615;stroke:none;" transform="matrix(25 0 0 25 143.925 -101.911)"/>
   <use xlink:href="#GlTTRicordiGretoTrial-Medium81" style="fill:#171615;stroke:none;" transform="matrix(25 0 0 25 264.625 -101.911)"/>
   <use xlink:href="#GlTTRicordiGretoTrial-Medium84" style="fill:#171615;stroke:none;" transform="matrix(25 0 0 25 414.825 -101.911)"/>
   <path style="fill:none; stroke:none;" d="M0 0 L566.929 0 L566.929 353.881 L0 353.881 L0 0 Z"/>
  </g>
  <g clip-rule="evenodd" style="fill:none; stroke:none" transform="translate(13.3396, 19.9949) scale(1, 1)" clip-path="url(#Clip0)">
   <g id="Group1" clip-rule="evenodd" style="fill:none; stroke:none" transform="translate(0, 0) scale(1, 1)" clip-path="url(#Clip1)">
    <path id="Text4+U0" style="fill:#171615; fill-rule:evenodd;stroke:none;" d="M180 333.9 C145.2 333.9 114.15 326.55 86.85 311.85 C59.55 297.15 38.25 277.05 22.95 251.55 C7.65 226.05 0 197.85 0 166.95 C0 136.05 7.65 107.85 22.95 82.35 C38.25 56.85 59.55 36.75 86.85 22.05 C114.15 7.35 145.2 0 180 0 C214.8 0 245.85 7.35 273.15 22.05 C300.45 36.75 321.75 56.85 337.05 82.35 C352.35 107.85 360 136.05 360 166.95 C360 197.85 352.35 226.05 337.05 251.55 C321.75 277.05 300.45 297.15 273.15 311.85 C245.85 326.55 214.8 333.9 180 333.9 L180 333.9 Z M180 297.9 C206.7 297.9 230.7 292.125 252 280.575 C273.3 269.025 289.875 253.275 301.725 233.325 C313.575 213.375 319.5 191.25 319.5 166.95 C319.5 142.65 313.575 120.525 301.725 100.575 C289.875 80.625 273.3 64.875 252 53.325 C230.7 41.775 206.7 36 180 36 C153.3 36 129.3 41.775 108 53.325 C86.7 64.875 70.125 80.625 58.275 100.575 C46.425 120.525 40.5 142.65 40.5 166.95 C40.5 191.25 46.425 213.375 58.275 233.325 C70.125 253.275 86.7 269.025 108 280.575 C129.3 292.125 153.3 297.9 180 297.9 L180 297.9 Z" transform="translate(0, 0)"/>
    <path id="Copy of Text4+U0 (2)" style="fill:#171615; fill-rule:evenodd;stroke:none;" d="M180 333.9 C145.2 333.9 114.15 326.55 86.85 311.85 C59.55 297.15 38.25 277.05 22.95 251.55 C7.65 226.05 0 197.85 0 166.95 C0 136.05 7.65 107.85 22.95 82.35 C38.25 56.85 59.55 36.75 86.85 22.05 C114.15 7.35 145.2 0 180 0 C214.8 0 245.85 7.35 273.15 22.05 C300.45 36.75 321.75 56.85 337.05 82.35 C352.35 107.85 360 136.05 360 166.95 C360 197.85 352.35 226.05 337.05 251.55 C321.75 277.05 300.45 297.15 273.15 311.85 C245.85 326.55 214.8 333.9 180 333.9 L180 333.9 Z M180 297.9 C206.7 297.9 230.7 292.125 252 280.575 C273.3 269.025 289.875 253.275 301.725 233.325 C313.575 213.375 319.5 191.25 319.5 166.95 C319.5 142.65 313.575 120.525 301.725 100.575 C289.875 80.625 273.3 64.875 252 53.325 C230.7 41.775 206.7 36 180 36 C153.3 36 129.3 41.775 108 53.325 C86.7 64.875 70.125 80.625 58.275 100.575 C46.425 120.525 40.5 142.65 40.5 166.95 C40.5 191.25 46.425 213.375 58.275 233.325 C70.125 253.275 86.7 269.025 108 280.575 C129.3 292.125 153.3 297.9 180 297.9 L180 297.9 Z" transform="translate(180.25, 0)"/>
   </g>
   <path style="stroke-width:36.8504; stroke-linecap:butt; stroke-linejoin:miter; stroke-dasharray:none; stroke:#171615;" d="M 0 0 L 99.2126 0" transform="translate(220.519, 166.95)"/>
  </g>
 </g>
</svg>
